<svg id="manekin_L1" data-name="manekin L1" xmlns="http://www.w3.org/2000/svg" viewBox="0 0 500 1000"><defs><style>.cls-1{fill:#c9a565;}</style></defs><path class="cls-1" d="M387.17,49.54V211.19h38.15V49.54Zm21.68,150.65h-4.34v-9.32a17.48,17.48,0,0,0-.09-2.42.91.91,0,0,0-.53-.62,5.52,5.52,0,0,0-1.94-.21h-.43v-2a7.85,7.85,0,0,0,4.78-2.78h2.55Z"/><path class="cls-1" d="M362.12,536.82,288,184.86l-67.7-16-3.76-34.79,32-35.73-1.88-50.77L181.74,27.84,124.39,57.93l3.76,85.56,39.49-2.82-1.88,32-55.47,32.91L79.73,520l58.76-244.85-5.25,660,63.55-433.41L325.6,960.56l-71.46-692ZM218.7,76.06a10.72,10.72,0,0,0,6.51-3.79h3.48V95.94h-5.91V83.25a22.28,22.28,0,0,0-.13-3.31,1.25,1.25,0,0,0-.72-.84,7.59,7.59,0,0,0-2.64-.28h-.59Z"/><polygon class="cls-1" points="313.9 909.61 280.87 959.15 288.8 973.68 320.17 972.69 337.35 949.24 319.84 910.27 313.9 909.61"/><polygon class="cls-1" points="133.9 900.78 61.57 926.21 61.9 937.44 150.74 934.8 138.19 895.83 133.9 900.78"/><polygon class="cls-1" points="341.97 489.59 330.08 497.51 322.82 519.97 330.58 525.65 338.67 555.64 354.52 559.94 368.73 524.93 361.46 497.51 350.89 486.28 341.97 489.59"/><polygon class="cls-1" points="94.08 475.29 105.03 481.53 113.36 501.53 107.22 507.41 103.06 535.66 89.85 540.99 74.39 510.07 77.42 486.94 86.11 473.03 94.08 475.29"/></svg>