<svg id="spodnie_L2" data-name="spodnie L2" xmlns="http://www.w3.org/2000/svg" viewBox="0 0 500 1000"><defs><style>.cls-1{fill:#6d0025;}</style></defs><path class="cls-1" d="M372.16,90.76v77.91h77.6V90.76Zm70.55,69.38v3h-9.54v-2.48q4.24-6.93,5-8.58a6.52,6.52,0,0,0,.8-2.57,1.89,1.89,0,0,0-.24-1.06.85.85,0,0,0-.74-.35.82.82,0,0,0-.74.39,3.27,3.27,0,0,0-.24,1.53v1.66h-3.88V151a13.79,13.79,0,0,1,.15-2.3,4.14,4.14,0,0,1,.74-1.66,3.7,3.7,0,0,1,1.53-1.23,5.58,5.58,0,0,1,2.27-.42,5.43,5.43,0,0,1,3.91,1.28,4.35,4.35,0,0,1,1.32,3.25,7.71,7.71,0,0,1-.74,3.16,65.51,65.51,0,0,1-4.4,7.06Z"/><path class="cls-1" d="M271.29,428.49l-134.75,1.76L120.69,865.77l34.46,2.2,45.46-326.2,92.7,349.1,35.78-7.93ZM255.73,514v4h-13v-3.38q5.77-9.43,6.86-11.68a8.81,8.81,0,0,0,1.09-3.51,2.5,2.5,0,0,0-.33-1.43,1.25,1.25,0,0,0-2,.05,4.56,4.56,0,0,0-.32,2.09v2.25h-5.3v-.86a18.36,18.36,0,0,1,.21-3.14,5.47,5.47,0,0,1,1-2.26,5,5,0,0,1,2.09-1.68,7.53,7.53,0,0,1,3.08-.57,7.35,7.35,0,0,1,5.33,1.75,5.9,5.9,0,0,1,1.81,4.42,10.51,10.51,0,0,1-1,4.3,88.79,88.79,0,0,1-6,9.62Z"/></svg>