<svg id="spodnie_L2" data-name="spodnie L2" xmlns="http://www.w3.org/2000/svg" viewBox="0 0 500 1000"><defs><style>.cls-1{fill:#fff;}</style></defs><path class="cls-1" d="M427.51,159.86v2.48h9.54v-3h-4.76a67.29,67.29,0,0,0,4.4-7.06,7.87,7.87,0,0,0,.74-3.16,4.35,4.35,0,0,0-1.32-3.25,5.45,5.45,0,0,0-3.91-1.28,5.58,5.58,0,0,0-2.27.42,3.7,3.7,0,0,0-1.53,1.23,4,4,0,0,0-.74,1.66,12.78,12.78,0,0,0-.15,2.3v.64h3.88v-1.66a3.27,3.27,0,0,1,.24-1.53.81.81,0,0,1,.74-.39.83.83,0,0,1,.73.35,1.8,1.8,0,0,1,.25,1.06,6.52,6.52,0,0,1-.8,2.57Q431.74,152.93,427.51,159.86Z"/><path class="cls-1" d="M250.59,499.32a5.89,5.89,0,0,0-1.8-4.42,7.36,7.36,0,0,0-5.33-1.75,7.61,7.61,0,0,0-3.09.57,5.14,5.14,0,0,0-2.09,1.68,5.45,5.45,0,0,0-1,2.26,18.36,18.36,0,0,0-.21,3.14v.86h5.29v-2.25a4.39,4.39,0,0,1,.33-2.09,1.11,1.11,0,0,1,1-.53,1.15,1.15,0,0,1,1,.48,2.5,2.5,0,0,1,.33,1.43,9,9,0,0,1-1.09,3.51q-1.09,2.24-6.87,11.68v3.38h13v-4h-6.48a90.53,90.53,0,0,0,6-9.62A10.65,10.65,0,0,0,250.59,499.32Z"/><path class="cls-1" d="M0,0V1000H500.14V0ZM287.65,890.11,195,541l-45.47,326.2L115,865l15.85-435.52,134.75-1.76,57.8,454.45Zm156.44-722.2H366.5V90h77.59Z"/></svg>