<svg id="koszula_L3" data-name="koszula L3" xmlns="http://www.w3.org/2000/svg" viewBox="0 0 500 1000"><defs><style>.cls-1{fill:#5496cc;}</style></defs><path class="cls-1" d="M354.06,59.78v80.5H411V59.78Zm18.15,22.11a3.29,3.29,0,0,1-1.63,1.74,7.81,7.81,0,0,1-6.21-.09,3.33,3.33,0,0,1-1.54-1.7,11.18,11.18,0,0,1-.37-3.48V77h4.33v2.82a4.46,4.46,0,0,0,.14,1.43.59.59,0,0,0,.59.31.65.65,0,0,0,.67-.39,7.13,7.13,0,0,0,.16-2v-1.2a3.51,3.51,0,0,0-.23-1.46,1.13,1.13,0,0,0-.66-.61,7.12,7.12,0,0,0-1.71-.16V73.19a8.58,8.58,0,0,0,1.91-.12.83.83,0,0,0,.53-.52,3.46,3.46,0,0,0,.16-1.24v-1a2.43,2.43,0,0,0-.19-1.2.65.65,0,0,0-.58-.29.63.63,0,0,0-.62.31,3.18,3.18,0,0,0-.17,1.3v1.43h-4.33V70.41c0-1.66.38-2.78,1.14-3.37a6,6,0,0,1,3.61-.87c2.07,0,3.47.4,4.21,1.21a4.8,4.8,0,0,1,1.1,3.37,4.24,4.24,0,0,1-.39,2.1,3.54,3.54,0,0,1-1.4,1.19,2.64,2.64,0,0,1,1.47,1.09,8,8,0,0,1,.49,3.55A8.54,8.54,0,0,1,372.21,81.89Z"/><path class="cls-1" d="M353.2,460.52,291.44,182.76l-61-14.31S180.14,207,178.82,207.86s-20.37-34.35-20.37-34.35L107.92,203l-26,250.57,20.25,5.28,35.23-173.06-10.13,200.8,59.45,5.62,7-37.32,10.79,38.64,78.6-13.21-27.3-203.78L326.67,468ZM261.08,222.24a4.63,4.63,0,0,1-2.23,2.37,8.84,8.84,0,0,1-4.05.81,8.63,8.63,0,0,1-4.4-.95,4.56,4.56,0,0,1-2.11-2.31,15.58,15.58,0,0,1-.5-4.74v-1.87h5.9v3.84a6,6,0,0,0,.19,2,.79.79,0,0,0,.81.41.86.86,0,0,0,.9-.52,9.72,9.72,0,0,0,.22-2.75v-1.64a4.9,4.9,0,0,0-.3-2,1.52,1.52,0,0,0-.91-.82,8.94,8.94,0,0,0-2.32-.23v-3.44a11.72,11.72,0,0,0,2.6-.16,1.1,1.1,0,0,0,.71-.7,4.7,4.7,0,0,0,.22-1.69V206.5a3.48,3.48,0,0,0-.25-1.64.89.89,0,0,0-.8-.39.87.87,0,0,0-.84.42,4.37,4.37,0,0,0-.23,1.77v2h-5.9v-2c0-2.26.51-3.79,1.55-4.58a8.05,8.05,0,0,1,4.92-1.2q4.23,0,5.73,1.65a6.55,6.55,0,0,1,1.51,4.59,5.72,5.72,0,0,1-.54,2.87,4.9,4.9,0,0,1-1.9,1.62,3.62,3.62,0,0,1,2,1.48c.44.69.66,2.3.66,4.84A12.06,12.06,0,0,1,261.08,222.24Z"/></svg>