<svg id="koszula_L3" data-name="koszula L3" xmlns="http://www.w3.org/2000/svg" viewBox="0 0 500 1000"><defs><style>.cls-1{opacity:0;}.cls-2{fill:#00ff1f;}</style></defs><g class="cls-1"><path class="cls-2" d="M358.71,82.78a7.81,7.81,0,0,0,6.21.09,3.33,3.33,0,0,0,1.63-1.74,8.56,8.56,0,0,0,.47-3.21,8,8,0,0,0-.48-3.55,2.64,2.64,0,0,0-1.47-1.09,3.5,3.5,0,0,0,1.39-1.19,4.11,4.11,0,0,0,.4-2.1,4.85,4.85,0,0,0-1.1-3.37c-.74-.81-2.14-1.21-4.21-1.21a6,6,0,0,0-3.62.87c-.76.59-1.14,1.71-1.14,3.37v1.48h4.34V69.7a3.18,3.18,0,0,1,.17-1.3.62.62,0,0,1,.61-.31.66.66,0,0,1,.59.29,2.55,2.55,0,0,1,.19,1.2v1a3.7,3.7,0,0,1-.16,1.24.85.85,0,0,1-.53.52,8.58,8.58,0,0,1-1.91.12V75a7.19,7.19,0,0,1,1.71.16,1.13,1.13,0,0,1,.66.61,3.51,3.51,0,0,1,.23,1.46v1.2a7.56,7.56,0,0,1-.16,2,.65.65,0,0,1-.67.39.59.59,0,0,1-.6-.31,4.57,4.57,0,0,1-.13-1.43V76.23h-4.34V77.6a11.5,11.5,0,0,0,.37,3.48A3.4,3.4,0,0,0,358.71,82.78Z"/><path class="cls-2" d="M253.4,210.78a4.9,4.9,0,0,0,1.9-1.62,5.72,5.72,0,0,0,.54-2.87,6.6,6.6,0,0,0-1.51-4.59q-1.5-1.65-5.73-1.65a8.11,8.11,0,0,0-4.93,1.2q-1.54,1.19-1.55,4.58v2H248V205.9a4.37,4.37,0,0,1,.23-1.77,1,1,0,0,1,1.63,0,3.45,3.45,0,0,1,.26,1.64v1.32a4.7,4.7,0,0,1-.22,1.69,1.11,1.11,0,0,1-.72.7,11.66,11.66,0,0,1-2.6.16v3.44a9,9,0,0,1,2.33.23,1.48,1.48,0,0,1,.9.82,4.7,4.7,0,0,1,.31,2v1.64a9.72,9.72,0,0,1-.22,2.75.88.88,0,0,1-.91.52.81.81,0,0,1-.81-.41,6.37,6.37,0,0,1-.18-2v-3.84h-5.91v1.87a15.18,15.18,0,0,0,.51,4.74,4.54,4.54,0,0,0,2.1,2.31,8.7,8.7,0,0,0,4.41.95,8.84,8.84,0,0,0,4.05-.81,4.65,4.65,0,0,0,2.22-2.37,11.82,11.82,0,0,0,.65-4.38c0-2.54-.22-4.15-.66-4.84A3.65,3.65,0,0,0,253.4,210.78Z"/><path class="cls-2" d="M0,0V1000H500.14V0ZM321,467.25,250.22,275.8l27.3,203.78-78.6,13.21-10.79-38.64-7,37.32-59.45-5.62,10.13-200.8L96.53,458.11l-20.26-5.28,26-250.57,50.54-29.51s19,35.23,20.36,34.35,51.64-39.41,51.64-39.41l61,14.31,61.76,277.76ZM405.3,139.52H348.4V59h56.9Z"/></g></svg>