<svg xmlns="http://www.w3.org/2000/svg" viewBox="0 0 500 500"><defs><style>.cls-1{fill:#fff;}.cls-2{fill:#c9a565;}</style></defs><g id="manekin_L1" data-name="manekin L1"><path class="cls-1" d="M0,0V500H157l10.42-214.19L132.19,458.87,124.86,457l-8.78-2.29-4.14-1.08,26-250.57,50.53-29.51,1.42,2.62c4.44,8.13,17.85,32.47,18.95,31.73s38.19-29.12,48.81-37.25l2.82-2.16,61,14.31L383.2,460.52l-6.75,1.91L363.63,466l-7,2L285.88,276.56,315,500H500V0Z"/><polygon class="cls-2" points="113.96 476.48 107.42 486.94 105.71 500 142.72 500 135.03 481.53 124.08 475.29 120.69 474.33 124.86 456.96 116.08 454.67 113.96 476.48"/><polygon class="cls-2" points="360.08 497.51 359.28 500 392.12 500 391.46 497.51 381.64 487.09 376.45 462.43 363.63 466.04 372.96 489.22 371.97 489.59 360.08 497.51"/><path class="cls-2" d="M208.82,207.86c1.13-.75,38.19-29.12,48.81-37.25l-7.34-1.73-3.76-34.79,32-35.73-1.88-50.77L211.74,27.84,154.39,57.93l3.76,85.56,39.49-2.82-1.88,32-5.89,3.49C194.31,184.26,207.72,208.6,208.82,207.86Z"/></g></svg>