<svg xmlns="http://www.w3.org/2000/svg" viewBox="0 0 500 500"><defs><style>.cls-1{fill:#fff;}.cls-2{fill:#c9a565;}</style></defs><g id="manekin_L1" data-name="manekin L1"><polygon class="cls-1" points="309 0 359.09 382.94 347.84 385.44 335.29 388.22 323.31 390.87 230.62 41.77 185.15 367.97 173.2 367.21 163.78 366.61 150.69 365.77 161 0 0 0 0 500 500 500 500 0 309 0"/><polygon class="cls-2" points="392.12 0 359.28 0 352.82 19.97 360.58 25.65 368.67 55.64 384.52 59.94 398.73 24.93 392.12 0"/><polygon class="cls-2" points="133.06 35.66 137.22 7.41 143.36 1.53 142.72 0 105.71 0 104.39 10.07 119.85 40.99 133.06 35.66"/><polygon class="cls-2" points="347.84 385.44 335.29 388.22 342.07 412.35 310.87 459.15 318.8 473.68 350.17 472.69 367.35 449.24 350.57 411.89 347.84 385.44"/><polygon class="cls-2" points="173.2 367.21 163.78 366.61 163.51 400.92 91.57 426.21 91.9 437.44 180.74 434.8 168.75 397.55 173.2 367.21"/></g></svg>